<?xml version="1.0" encoding="UTF-8"?>
<svg xmlns="http://www.w3.org/2000/svg" xmlns:xlink="http://www.w3.org/1999/xlink" width="119pt" height="68pt" viewBox="0 0 119 68" version="1.1">
<g id="surface1">
<path style=" stroke:none;fill-rule:nonzero;fill:rgb(0%,0%,0%);fill-opacity:1;" d="M 57.613281 13.765625 C 57.554688 13.882812 57.59375 14.078125 57.710938 14.191406 C 58.09375 14.578125 57.921875 14.714844 57 14.714844 C 55.710938 14.714844 55.226562 15.101562 55.226562 16.148438 C 55.226562 16.59375 55.113281 17.078125 54.996094 17.195312 C 54.804688 17.386719 54.804688 17.523438 54.996094 17.8125 C 55.113281 18.027344 55.226562 18.585938 55.226562 19.070312 L 55.226562 19.941406 L 60.578125 19.941406 L 60.65625 18.683594 C 60.75 17.117188 60.578125 15.375 60.289062 15.082031 C 60.152344 14.949219 59.632812 14.8125 59.097656 14.753906 C 58.152344 14.675781 58.132812 14.65625 58.25 14.113281 C 58.324219 13.6875 58.289062 13.554688 58.058594 13.554688 C 57.882812 13.554688 57.691406 13.648438 57.613281 13.765625 Z M 59.808594 17.367188 L 59.75 19.070312 L 57.882812 19.128906 L 55.996094 19.1875 L 55.996094 15.683594 L 59.867188 15.683594 Z M 59.808594 17.367188 "/>
<path style=" stroke:none;fill-rule:nonzero;fill:rgb(0%,0%,0%);fill-opacity:1;" d="M 56.460938 16.339844 C 56.304688 16.75 56.515625 17.039062 56.980469 17.039062 C 57.269531 17.039062 57.363281 16.921875 57.304688 16.613281 C 57.230469 16.089844 56.632812 15.894531 56.460938 16.339844 Z M 56.460938 16.339844 "/>
<path style=" stroke:none;fill-rule:nonzero;fill:rgb(0%,0%,0%);fill-opacity:1;" d="M 58.441406 16.207031 C 58.210938 16.4375 58.308594 17 58.578125 17.097656 C 59 17.269531 59.367188 16.730469 59.078125 16.359375 C 58.808594 16.050781 58.632812 15.992188 58.441406 16.207031 Z M 58.441406 16.207031 "/>
<path style=" stroke:none;fill-rule:nonzero;fill:rgb(0%,0%,0%);fill-opacity:1;" d="M 57.191406 18.105469 C 57.191406 18.414062 57.230469 18.53125 57.285156 18.335938 C 57.324219 18.160156 57.324219 17.890625 57.285156 17.753906 C 57.230469 17.640625 57.191406 17.773438 57.191406 18.105469 Z M 57.191406 18.105469 "/>
<path style=" stroke:none;fill-rule:nonzero;fill:rgb(0%,0%,0%);fill-opacity:1;" d="M 57.574219 18.105469 C 57.574219 18.414062 57.613281 18.53125 57.671875 18.335938 C 57.710938 18.160156 57.710938 17.890625 57.671875 17.753906 C 57.613281 17.640625 57.574219 17.773438 57.574219 18.105469 Z M 57.574219 18.105469 "/>
<path style=" stroke:none;fill-rule:nonzero;fill:rgb(0%,0%,0%);fill-opacity:1;" d="M 56.574219 18.085938 C 56.574219 18.238281 56.671875 18.433594 56.765625 18.492188 C 56.882812 18.550781 56.960938 18.433594 56.960938 18.21875 C 56.960938 17.988281 56.882812 17.8125 56.765625 17.8125 C 56.671875 17.8125 56.574219 17.929688 56.574219 18.085938 Z M 56.574219 18.085938 "/>
<path style=" stroke:none;fill-rule:nonzero;fill:rgb(0%,0%,0%);fill-opacity:1;" d="M 57.960938 18.199219 C 57.960938 18.472656 58 18.566406 58.058594 18.433594 C 58.09375 18.316406 58.09375 18.085938 58.058594 17.949219 C 58 17.832031 57.960938 17.929688 57.960938 18.199219 Z M 57.960938 18.199219 "/>
<path style=" stroke:none;fill-rule:nonzero;fill:rgb(0%,0%,0%);fill-opacity:1;" d="M 58.34375 18.199219 C 58.34375 18.472656 58.382812 18.566406 58.441406 18.433594 C 58.480469 18.316406 58.480469 18.085938 58.441406 17.949219 C 58.382812 17.832031 58.34375 17.929688 58.34375 18.199219 Z M 58.34375 18.199219 "/>
<path style=" stroke:none;fill-rule:nonzero;fill:rgb(0%,0%,0%);fill-opacity:1;" d="M 58.882812 18.179688 C 58.882812 18.664062 59 18.703125 59.132812 18.296875 C 59.210938 18.140625 59.171875 17.96875 59.078125 17.910156 C 58.960938 17.832031 58.882812 17.96875 58.882812 18.179688 Z M 58.882812 18.179688 "/>
<path style=" stroke:none;fill-rule:nonzero;fill:rgb(0%,0%,0%);fill-opacity:1;" d="M 61.386719 18.605469 C 61.386719 19.011719 61.578125 19.382812 61.964844 19.789062 C 62.445312 20.273438 62.539062 20.503906 62.539062 21.316406 L 62.539062 22.265625 L 61.867188 22.265625 C 61.289062 22.265625 61.195312 22.207031 61.195312 21.820312 C 61.195312 20.660156 60.136719 20.136719 57.730469 20.136719 C 54.804688 20.136719 54.265625 20.582031 54.265625 23.039062 C 54.265625 24.570312 54.265625 24.589844 54.746094 24.589844 C 55.207031 24.589844 55.226562 24.550781 55.226562 23.175781 C 55.226562 22.34375 55.324219 21.667969 55.457031 21.53125 C 55.613281 21.375 56.402344 21.296875 57.730469 21.296875 C 59.058594 21.296875 59.847656 21.375 60 21.53125 C 60.152344 21.6875 60.230469 22.5 60.230469 23.949219 L 60.230469 26.140625 L 60.710938 26.140625 C 61.175781 26.140625 61.195312 26.101562 61.195312 24.785156 L 61.195312 23.429688 L 63.503906 23.429688 L 63.503906 21.898438 C 63.503906 20.445312 63.542969 20.332031 64.078125 19.789062 C 64.832031 19.011719 64.90625 18.007812 64.195312 18.007812 C 63.847656 18.007812 63.714844 18.140625 63.636719 18.585938 C 63.542969 19.050781 63.40625 19.167969 63.023438 19.167969 C 62.636719 19.167969 62.5 19.050781 62.425781 18.585938 C 62.328125 18.140625 62.195312 18.007812 61.847656 18.007812 C 61.460938 18.007812 61.386719 18.105469 61.386719 18.605469 Z M 61.386719 18.605469 "/>
<path style=" stroke:none;fill-rule:nonzero;fill:rgb(0%,0%,0%);fill-opacity:1;" d="M 56.191406 22.460938 C 56.191406 22.558594 56.402344 22.652344 56.652344 22.652344 C 56.921875 22.652344 57.191406 22.75 57.25 22.847656 C 57.324219 22.964844 57.480469 22.984375 57.59375 22.90625 C 57.710938 22.828125 58.171875 22.789062 58.632812 22.828125 C 59.289062 22.867188 59.460938 22.808594 59.460938 22.578125 C 59.460938 22.324219 59.191406 22.265625 57.824219 22.265625 C 56.863281 22.265625 56.191406 22.34375 56.191406 22.460938 Z M 56.191406 22.460938 "/>
<path style=" stroke:none;fill-rule:nonzero;fill:rgb(0%,0%,0%);fill-opacity:1;" d="M 56.191406 23.136719 C 56.191406 23.371094 56.5 23.429688 57.824219 23.429688 C 58.730469 23.429688 59.460938 23.351562 59.460938 23.253906 C 59.460938 23.023438 57.769531 22.886719 57.554688 23.097656 C 57.460938 23.195312 57.324219 23.175781 57.269531 23.058594 C 57.054688 22.730469 56.191406 22.789062 56.191406 23.136719 Z M 56.191406 23.136719 "/>
<path style=" stroke:none;fill-rule:nonzero;fill:rgb(0%,0%,0%);fill-opacity:1;" d="M 4.617188 33.785156 L 4.617188 34.269531 L 113.148438 34.269531 L 113.148438 33.304688 L 4.617188 33.304688 Z M 4.617188 33.785156 "/>
<path style=" stroke:none;fill-rule:nonzero;fill:rgb(0%,0%,0%);fill-opacity:1;" d="M 69.46875 47.4375 L 69.46875 54.796875 L 72.160156 54.796875 L 72.160156 54.019531 C 72.160156 53.109375 72.257812 53.070312 72.796875 53.75 C 73.757812 54.988281 76.085938 55.355469 77.859375 54.523438 C 78.9375 54.019531 79.9375 52.9375 80.261719 51.890625 C 80.589844 50.882812 80.726562 50.824219 80.976562 51.640625 C 81.285156 52.683594 82.246094 53.75 83.398438 54.367188 C 84.265625 54.832031 84.59375 54.890625 86.210938 54.890625 C 87.882812 54.890625 88.132812 54.832031 89.078125 54.3125 C 90.886719 53.304688 91.789062 51.734375 91.789062 49.566406 C 91.789062 46.3125 89.480469 44.085938 86.152344 44.105469 C 84.785156 44.125 83.535156 44.511719 82.59375 45.25 C 81.820312 45.832031 80.820312 47.339844 80.820312 47.902344 C 80.820312 48.132812 80.511719 47.667969 80.148438 46.914062 C 79.359375 45.308594 78.570312 44.589844 77.183594 44.222656 C 75.605469 43.816406 73.855469 44.378906 73.027344 45.558594 C 72.757812 45.945312 72.738281 45.714844 72.738281 43.023438 L 72.738281 40.078125 L 69.46875 40.078125 Z M 76.335938 47.167969 C 77.839844 48.113281 77.742188 51.175781 76.203125 51.988281 C 75.125 52.550781 73.414062 52.199219 72.933594 51.328125 C 72.835938 51.117188 72.738281 50.339844 72.738281 49.585938 C 72.738281 48.289062 72.777344 48.191406 73.414062 47.554688 C 74.316406 46.644531 75.296875 46.507812 76.335938 47.167969 Z M 87.519531 47.1875 C 88.09375 47.535156 88.519531 48.558594 88.519531 49.546875 C 88.519531 51.230469 87.652344 52.277344 86.230469 52.277344 C 84.6875 52.277344 83.898438 51.347656 83.898438 49.507812 C 83.898438 47.28125 85.765625 46.082031 87.519531 47.1875 Z M 87.519531 47.1875 "/>
<path style=" stroke:none;fill-rule:nonzero;fill:rgb(0%,0%,0%);fill-opacity:1;" d="M 33.097656 42.5 L 33.097656 44.144531 L 31.75 44.144531 L 31.75 46.664062 L 33.097656 46.664062 L 33.097656 53.441406 L 33.734375 54.15625 C 34.3125 54.777344 34.523438 54.871094 35.484375 54.949219 C 36.753906 55.046875 39.0625 54.523438 39.0625 54.117188 C 39.0625 53.960938 38.96875 53.421875 38.832031 52.878906 L 38.621094 51.910156 L 37.699219 52.027344 C 36.234375 52.199219 36.175781 52.085938 36.175781 49.160156 L 36.175781 46.664062 L 38.292969 46.664062 L 38.292969 44.144531 L 36.175781 44.144531 L 36.175781 40.855469 L 33.097656 40.855469 Z M 33.097656 42.5 "/>
<path style=" stroke:none;fill-rule:nonzero;fill:rgb(0%,0%,0%);fill-opacity:1;" d="M 92.945312 42.5 L 92.945312 44.144531 L 91.597656 44.144531 L 91.597656 46.664062 L 92.945312 46.664062 L 92.945312 49.761719 C 92.945312 53.285156 93.117188 53.960938 94.136719 54.601562 C 94.601562 54.871094 95.101562 54.988281 95.925781 54.988281 C 97.234375 54.96875 99.027344 54.425781 98.949219 54.058594 C 98.910156 53.789062 99.21875 53.75 99.390625 54.019531 C 99.601562 54.367188 102.027344 54.988281 103.238281 54.988281 C 105.894531 54.988281 107.570312 53.710938 107.570312 51.695312 C 107.570312 50.03125 106.820312 49.355469 104.007812 48.503906 C 101.679688 47.804688 101.160156 47.320312 101.949219 46.605469 C 102.507812 46.101562 103.722656 46.199219 104.914062 46.816406 L 105.953125 47.378906 L 106.570312 46.449219 L 107.164062 45.519531 L 106.625 45.132812 C 105.300781 44.183594 103.316406 43.816406 101.71875 44.242188 C 100.257812 44.628906 99.621094 45.113281 99.101562 46.199219 C 98.773438 46.855469 98.699219 47.28125 98.773438 47.882812 C 98.929688 49.082031 99.777344 49.761719 101.894531 50.417969 C 104.046875 51.097656 104.492188 51.367188 104.492188 51.988281 C 104.492188 53.03125 102.316406 53.03125 100.527344 51.988281 C 100.082031 51.714844 99.660156 51.503906 99.601562 51.503906 C 99.546875 51.503906 99.332031 51.832031 99.121094 52.21875 L 98.757812 52.957031 L 98.621094 52.433594 C 98.507812 51.949219 98.429688 51.910156 97.601562 52.007812 C 96.175781 52.160156 96.121094 52.066406 96.0625 49.179688 L 95.984375 46.664062 L 98.351562 46.664062 L 98.292969 45.441406 L 98.238281 44.242188 L 97.140625 44.183594 L 96.023438 44.125 L 96.023438 40.855469 L 92.945312 40.855469 Z M 92.945312 42.5 "/>
<path style=" stroke:none;fill-rule:nonzero;fill:rgb(0%,0%,0%);fill-opacity:1;" d="M 63.464844 45.152344 C 62.675781 46.140625 61.328125 47.882812 60.441406 49.023438 C 58.980469 50.921875 58.5 51.328125 58.5 50.652344 C 58.5 50.339844 57.59375 49.488281 56.863281 49.121094 C 56.554688 48.96875 55.726562 48.675781 55.035156 48.503906 C 53.226562 48 52.726562 47.707031 52.726562 47.148438 C 52.726562 46.140625 54.226562 45.984375 55.882812 46.835938 L 56.980469 47.378906 L 57.539062 46.546875 C 57.863281 46.101562 58.113281 45.636719 58.113281 45.519531 C 58.113281 45.421875 57.554688 45.054688 56.882812 44.726562 C 55.863281 44.222656 55.441406 44.105469 54.226562 44.105469 C 51.765625 44.066406 50.109375 45.25 49.878906 47.167969 L 49.78125 48.039062 L 49.417969 47.203125 C 48.683594 45.539062 47.261719 44.476562 45.335938 44.183594 C 41.605469 43.585938 38.679688 45.964844 38.679688 49.566406 C 38.679688 52.625 40.679688 54.738281 43.777344 54.949219 C 45.800781 55.085938 47.089844 54.640625 48.339844 53.441406 C 48.933594 52.859375 49.261719 52.394531 49.148438 52.296875 C 49.050781 52.21875 48.453125 52.007812 47.820312 51.832031 C 46.820312 51.542969 46.664062 51.542969 46.511719 51.792969 C 46.066406 52.605469 44.164062 52.917969 43.085938 52.355469 C 42.605469 52.121094 41.949219 51.117188 41.949219 50.632812 C 41.949219 50.574219 43.71875 50.535156 45.894531 50.535156 L 49.839844 50.535156 L 49.859375 49.414062 C 49.859375 48.558594 49.898438 48.40625 50.03125 48.734375 C 50.28125 49.375 51.226562 49.878906 53.285156 50.535156 C 54.265625 50.84375 55.191406 51.214844 55.34375 51.328125 C 55.765625 51.675781 55.671875 52.238281 55.132812 52.585938 C 54.496094 53.011719 53.285156 52.820312 51.820312 52.085938 C 51.226562 51.773438 50.648438 51.5625 50.570312 51.621094 C 50.378906 51.734375 49.648438 53.148438 49.648438 53.402344 C 49.648438 53.476562 49.992188 53.769531 50.4375 54 C 52.804688 55.335938 56.191406 55.296875 57.652344 53.921875 L 58.308594 53.304688 L 58.308594 54.601562 L 63.886719 54.601562 L 63.886719 57.503906 L 66.964844 57.503906 L 66.964844 54.601562 L 68.910156 54.601562 L 68.851562 53.1875 L 68.792969 51.792969 L 67.890625 51.734375 L 66.964844 51.675781 L 66.964844 43.371094 L 64.867188 43.371094 Z M 45.222656 46.527344 C 45.722656 46.777344 46.570312 47.902344 46.570312 48.328125 C 46.570312 48.539062 46.066406 48.597656 44.238281 48.597656 L 41.910156 48.597656 L 42.046875 48.058594 C 42.394531 46.664062 43.988281 45.886719 45.222656 46.527344 Z M 64.214844 51.640625 C 64.15625 51.675781 63.542969 51.695312 62.828125 51.660156 L 61.539062 51.601562 L 62.867188 49.878906 L 64.175781 48.152344 L 64.234375 49.859375 C 64.273438 50.785156 64.253906 51.582031 64.214844 51.640625 Z M 64.214844 51.640625 "/>
<path style=" stroke:none;fill-rule:nonzero;fill:rgb(0%,0%,0%);fill-opacity:1;" d="M 16.105469 44.164062 C 15.085938 44.320312 13.507812 45.171875 13.316406 45.65625 C 13.21875 45.867188 13.144531 45.675781 13.085938 45.113281 L 12.988281 44.242188 L 11.605469 44.183594 L 10.199219 44.125 L 10.199219 54.796875 L 13.277344 54.796875 L 13.277344 51.734375 C 13.277344 49.082031 13.335938 48.617188 13.644531 48.132812 C 14.433594 46.933594 15.722656 46.527344 16.570312 47.222656 C 17.011719 47.59375 17.03125 47.6875 17.089844 51.195312 L 17.144531 54.796875 L 20.207031 54.796875 L 20.207031 50.769531 C 20.207031 48.558594 20.128906 46.449219 20.011719 46.101562 C 19.761719 45.230469 18.953125 44.398438 18.203125 44.242188 C 17.875 44.164062 17.472656 44.085938 17.320312 44.066406 C 17.164062 44.03125 16.625 44.066406 16.105469 44.164062 Z M 16.105469 44.164062 "/>
<path style=" stroke:none;fill-rule:nonzero;fill:rgb(0%,0%,0%);fill-opacity:1;" d="M 25.1875 44.144531 C 23.976562 44.359375 22.898438 44.941406 22.070312 45.867188 C 21.089844 46.972656 20.746094 47.882812 20.726562 49.46875 C 20.6875 52.742188 22.957031 54.988281 26.265625 54.988281 C 30.480469 54.988281 33.097656 51.039062 31.40625 47.203125 C 30.441406 45.015625 27.824219 43.71875 25.1875 44.144531 Z M 27.882812 47.554688 C 28.941406 48.753906 28.902344 50.535156 27.804688 51.640625 C 27.269531 52.179688 27.035156 52.277344 26.304688 52.277344 C 24.707031 52.277344 23.648438 50.785156 23.957031 48.96875 C 24.304688 46.894531 26.59375 46.0625 27.882812 47.554688 Z M 27.882812 47.554688 "/>
<path style=" stroke:none;fill-rule:nonzero;fill:rgb(0%,0%,0%);fill-opacity:1;" d="M 4.753906 63.449219 C 4.675781 63.507812 4.617188 63.777344 4.617188 64.03125 L 4.617188 64.476562 L 113.167969 64.476562 L 113.113281 63.933594 L 113.054688 63.410156 L 58.960938 63.351562 C 29.210938 63.332031 4.8125 63.371094 4.753906 63.449219 Z M 4.753906 63.449219 "/>
</g>
</svg>
