<?xml version="1.0" encoding="UTF-8"?>
<svg xmlns="http://www.w3.org/2000/svg" xmlns:xlink="http://www.w3.org/1999/xlink" width="101pt" height="62pt" viewBox="0 0 101 62" version="1.1">
<g id="surface1">
<path style=" stroke:none;fill-rule:nonzero;fill:rgb(0%,0%,0%);fill-opacity:1;" d="M 47.753906 1.261719 C 47.484375 1.539062 47.5 2.015625 47.8125 2.277344 C 47.949219 2.398438 48.070312 2.679688 48.070312 2.902344 C 48.070312 3.328125 48.050781 3.328125 46.265625 3.328125 C 44.515625 3.328125 44.445312 3.34375 43.914062 3.832031 C 43.363281 4.324219 43.347656 4.394531 43.289062 5.933594 C 43.246094 7.160156 43.179688 7.527344 42.988281 7.527344 C 42.660156 7.527344 42.660156 8.683594 43.003906 8.875 C 43.191406 8.980469 43.261719 9.453125 43.289062 10.769531 L 43.347656 12.515625 L 48.203125 12.570312 L 53.046875 12.601562 L 53.046875 10.769531 C 53.046875 9.242188 53.097656 8.925781 53.300781 8.925781 C 53.492188 8.925781 53.558594 8.734375 53.558594 8.226562 C 53.558594 7.738281 53.492188 7.527344 53.316406 7.527344 C 53.132812 7.527344 53.066406 7.160156 53.011719 5.96875 C 52.960938 4.515625 52.929688 4.363281 52.460938 3.867188 C 51.964844 3.34375 51.929688 3.328125 50.261719 3.328125 C 48.6875 3.328125 48.582031 3.308594 48.582031 2.976562 C 48.582031 2.765625 48.699219 2.433594 48.855469 2.191406 C 49.351562 1.417969 48.394531 0.609375 47.753906 1.261719 Z M 51.5 7.878906 L 51.5 11.027344 L 44.804688 11.027344 L 44.804688 8 C 44.804688 6.320312 44.859375 4.902344 44.925781 4.847656 C 44.976562 4.78125 46.492188 4.726562 48.273438 4.726562 L 51.5 4.726562 Z M 51.5 7.878906 "/>
<path style=" stroke:none;fill-rule:nonzero;fill:rgb(0%,0%,0%);fill-opacity:1;" d="M 45.714844 6.054688 C 45.457031 6.476562 45.457031 6.566406 45.6875 6.984375 C 45.992188 7.546875 46.609375 7.664062 47.050781 7.242188 C 47.46875 6.863281 47.46875 6.269531 47.074219 5.902344 C 46.609375 5.464844 46.058594 5.535156 45.714844 6.054688 Z M 45.714844 6.054688 "/>
<path style=" stroke:none;fill-rule:nonzero;fill:rgb(0%,0%,0%);fill-opacity:1;" d="M 49.132812 5.882812 C 48.425781 6.367188 48.808594 7.527344 49.679688 7.527344 C 50.128906 7.527344 50.644531 7.019531 50.644531 6.597656 C 50.644531 6.246094 50.0625 5.601562 49.730469 5.601562 C 49.613281 5.601562 49.339844 5.722656 49.132812 5.882812 Z M 49.132812 5.882812 "/>
<path style=" stroke:none;fill-rule:nonzero;fill:rgb(0%,0%,0%);fill-opacity:1;" d="M 45.871094 8.785156 C 45.578125 9.085938 45.613281 9.523438 45.972656 9.855469 C 46.386719 10.242188 46.519531 10.082031 46.519531 9.242188 C 46.519531 8.558594 46.265625 8.382812 45.871094 8.785156 Z M 45.871094 8.785156 "/>
<path style=" stroke:none;fill-rule:nonzero;fill:rgb(0%,0%,0%);fill-opacity:1;" d="M 46.867188 9.367188 C 46.867188 9.800781 46.949219 10.15625 47.035156 10.15625 C 47.140625 10.15625 47.210938 9.800781 47.210938 9.367188 C 47.210938 8.925781 47.140625 8.578125 47.035156 8.578125 C 46.949219 8.578125 46.867188 8.925781 46.867188 9.367188 Z M 46.867188 9.367188 "/>
<path style=" stroke:none;fill-rule:nonzero;fill:rgb(0%,0%,0%);fill-opacity:1;" d="M 47.554688 9.367188 C 47.554688 9.800781 47.640625 10.15625 47.726562 10.15625 C 47.828125 10.15625 47.894531 9.800781 47.894531 9.367188 C 47.894531 8.925781 47.828125 8.578125 47.726562 8.578125 C 47.640625 8.578125 47.554688 8.925781 47.554688 9.367188 Z M 47.554688 9.367188 "/>
<path style=" stroke:none;fill-rule:nonzero;fill:rgb(0%,0%,0%);fill-opacity:1;" d="M 48.273438 9.3125 C 48.304688 9.730469 48.410156 10.066406 48.496094 10.066406 C 48.601562 10.066406 48.6875 9.730469 48.722656 9.3125 C 48.769531 8.734375 48.722656 8.578125 48.496094 8.578125 C 48.273438 8.578125 48.222656 8.734375 48.273438 9.3125 Z M 48.273438 9.3125 "/>
<path style=" stroke:none;fill-rule:nonzero;fill:rgb(0%,0%,0%);fill-opacity:1;" d="M 49.09375 9.367188 C 49.09375 9.800781 49.183594 10.15625 49.269531 10.15625 C 49.371094 10.15625 49.441406 9.800781 49.441406 9.367188 C 49.441406 8.925781 49.371094 8.578125 49.269531 8.578125 C 49.183594 8.578125 49.09375 8.925781 49.09375 9.367188 Z M 49.09375 9.367188 "/>
<path style=" stroke:none;fill-rule:nonzero;fill:rgb(0%,0%,0%);fill-opacity:1;" d="M 49.789062 9.367188 C 49.789062 10.117188 49.800781 10.15625 50.148438 9.980469 C 50.59375 9.730469 50.558594 8.699219 50.089844 8.613281 C 49.835938 8.558594 49.789062 8.683594 49.789062 9.367188 Z M 49.789062 9.367188 "/>
<path style=" stroke:none;fill-rule:nonzero;fill:rgb(0%,0%,0%);fill-opacity:1;" d="M 54.417969 9.90625 C 54.417969 11.148438 54.8125 11.988281 55.636719 12.585938 L 56.292969 13.042969 L 56.308594 14.917969 L 56.308594 16.808594 L 55.273438 16.808594 C 54.28125 16.808594 54.25 16.789062 54.25 16.367188 C 54.25 15.722656 53.785156 14.703125 53.25 14.128906 C 52.359375 13.164062 52.1875 13.128906 47.980469 13.128906 C 43.652344 13.128906 43.191406 13.234375 42.351562 14.390625 C 41.679688 15.316406 41.542969 16.015625 41.542969 18.570312 L 41.542969 21.007812 L 43.433594 21.007812 L 43.433594 18.640625 C 43.433594 15.980469 43.585938 15.421875 44.433594 15.074219 C 44.773438 14.917969 45.9375 14.878906 48.222656 14.917969 L 51.535156 14.964844 L 51.949219 15.457031 C 52.359375 15.949219 52.359375 15.980469 52.359375 19.796875 L 52.359375 23.632812 L 54.25 23.632812 L 54.25 18.726562 L 58.195312 18.726562 L 58.195312 13.042969 L 58.765625 12.726562 C 59.636719 12.238281 60.097656 11.378906 60.222656 10.066406 L 60.308594 8.925781 L 58.371094 8.925781 L 58.371094 9.785156 C 58.371094 10.519531 58.296875 10.710938 57.902344 11.007812 C 57.0625 11.714844 56.308594 11.113281 56.308594 9.769531 L 56.308594 8.925781 L 54.417969 8.925781 Z M 54.417969 9.90625 "/>
<path style=" stroke:none;fill-rule:nonzero;fill:rgb(0%,0%,0%);fill-opacity:1;" d="M 45.152344 17.242188 C 45.152344 17.730469 45.597656 17.835938 46.179688 17.472656 C 46.453125 17.292969 46.578125 17.308594 46.941406 17.664062 C 47.308594 18.03125 47.414062 18.046875 47.65625 17.851562 C 47.839844 17.683594 48.375 17.625 49.542969 17.664062 L 51.160156 17.714844 L 51.160156 16.808594 L 45.152344 16.808594 Z M 45.152344 17.242188 "/>
<path style=" stroke:none;fill-rule:nonzero;fill:rgb(0%,0%,0%);fill-opacity:1;" d="M 45.714844 17.804688 C 45.25 17.871094 45.152344 17.957031 45.152344 18.308594 L 45.152344 18.726562 L 48.152344 18.726562 C 51.003906 18.726562 51.160156 18.714844 51.160156 18.394531 C 51.160156 18.082031 51.003906 18.046875 49.578125 17.996094 C 48.375 17.957031 47.914062 17.996094 47.671875 18.1875 C 47.414062 18.414062 47.328125 18.394531 46.984375 18.0625 C 46.765625 17.851562 46.519531 17.695312 46.421875 17.714844 C 46.332031 17.714844 46.007812 17.769531 45.714844 17.804688 Z M 45.714844 17.804688 "/>
<path style=" stroke:none;fill-rule:nonzero;fill:rgb(0%,0%,0%);fill-opacity:1;" d="M 1.835938 32.15625 C 1.769531 32.210938 1.71875 32.417969 1.71875 32.59375 C 1.71875 32.890625 3.296875 32.910156 49.976562 32.910156 L 98.214844 32.910156 L 98.160156 32.507812 L 98.109375 32.121094 L 50.023438 32.070312 C 23.589844 32.050781 1.890625 32.085938 1.835938 32.15625 Z M 1.835938 32.15625 "/>
<path style=" stroke:none;fill-rule:nonzero;fill:rgb(0%,0%,0%);fill-opacity:1;" d="M 59.398438 44.8125 L 59.398438 51.464844 L 61.800781 51.464844 L 61.800781 50.03125 L 62.472656 50.640625 C 63.601562 51.675781 65.203125 51.921875 66.605469 51.269531 C 67.671875 50.78125 68.289062 50.152344 68.839844 48.964844 L 69.320312 47.949219 L 69.542969 48.613281 C 69.871094 49.628906 71.34375 51.027344 72.441406 51.359375 C 74.902344 52.097656 77.421875 51.21875 78.574219 49.242188 C 79.007812 48.46875 79.054688 48.242188 79.054688 46.742188 C 79.054688 45.230469 79.007812 44.988281 78.589844 44.246094 C 77.628906 42.605469 76.203125 41.832031 74.074219 41.832031 C 71.929688 41.832031 70.125 43.0625 69.511719 44.933594 L 69.320312 45.546875 L 68.910156 44.550781 C 68.203125 42.746094 66.988281 41.832031 65.34375 41.832031 C 64.132812 41.832031 63.585938 42.046875 62.796875 42.855469 L 62.140625 43.480469 L 62.140625 38.160156 L 59.398438 38.160156 Z M 65.542969 44.703125 C 66.851562 45.894531 66.691406 48.15625 65.253906 48.921875 C 64.289062 49.433594 63.003906 49.132812 62.417969 48.28125 C 62.074219 47.789062 62.058594 46.195312 62.386719 45.546875 C 63.074219 44.203125 64.5625 43.796875 65.542969 44.703125 Z M 75.246094 44.496094 C 76.136719 44.96875 76.53125 47.015625 75.964844 48.136719 C 75.191406 49.640625 73.015625 49.464844 72.34375 47.859375 C 71.417969 45.601562 73.269531 43.464844 75.246094 44.496094 Z M 75.246094 44.496094 "/>
<path style=" stroke:none;fill-rule:nonzero;fill:rgb(0%,0%,0%);fill-opacity:1;" d="M 26.953125 40.4375 L 26.953125 42.011719 L 25.75 42.011719 L 25.75 44.113281 L 26.953125 44.113281 L 26.953125 46.859375 C 26.953125 49.257812 27 49.695312 27.292969 50.34375 C 27.878906 51.570312 29.324219 51.9375 31.261719 51.359375 C 31.777344 51.199219 32.242188 51.027344 32.308594 50.972656 C 32.378906 50.902344 32.308594 50.363281 32.152344 49.765625 C 31.914062 48.800781 31.859375 48.699219 31.574219 48.839844 C 31.140625 49.085938 30.320312 49.050781 30.074219 48.800781 C 29.941406 48.660156 29.871094 47.859375 29.871094 46.351562 L 29.871094 44.113281 L 31.757812 44.113281 L 31.757812 42.011719 L 29.871094 42.011719 L 29.871094 38.859375 L 26.953125 38.859375 Z M 26.953125 40.4375 "/>
<path style=" stroke:none;fill-rule:nonzero;fill:rgb(0%,0%,0%);fill-opacity:1;" d="M 80.171875 40.4375 L 80.171875 42.011719 L 78.96875 42.011719 L 78.96875 44.113281 L 80.171875 44.113281 L 80.171875 46.925781 C 80.171875 49.203125 80.222656 49.867188 80.460938 50.363281 C 80.804688 51.113281 81.816406 51.636719 82.917969 51.621094 C 83.878906 51.621094 85.59375 51.0625 85.527344 50.800781 C 85.472656 50.519531 85.558594 50.535156 86.320312 50.921875 C 87.980469 51.761719 90.351562 51.847656 91.691406 51.09375 C 92.992188 50.363281 93.574219 48.660156 92.957031 47.4375 C 92.613281 46.753906 91.863281 46.332031 90.042969 45.773438 C 88 45.144531 87.515625 44.703125 88.171875 44.039062 C 88.597656 43.585938 89.78125 43.691406 90.832031 44.269531 L 91.738281 44.761719 L 92.238281 43.972656 C 92.496094 43.550781 92.679688 43.097656 92.632812 42.972656 C 92.445312 42.464844 90.914062 41.921875 89.472656 41.871094 C 88.222656 41.800781 87.945312 41.855469 87.125 42.253906 C 86.058594 42.796875 85.472656 43.585938 85.371094 44.6875 C 85.253906 46.074219 85.988281 46.789062 88.304688 47.542969 C 89.9375 48.066406 90.472656 48.382812 90.472656 48.824219 C 90.472656 49.75 88.824219 49.839844 87.207031 49.011719 C 86.644531 48.734375 86.144531 48.488281 86.109375 48.488281 C 86.058594 48.488281 85.886719 48.734375 85.746094 49.011719 C 85.472656 49.574219 85.152344 49.574219 85.152344 49.03125 C 85.152344 48.75 85.082031 48.734375 84.460938 48.910156 C 83.257812 49.222656 83.175781 49.085938 83.121094 46.40625 L 83.070312 44.113281 L 84.976562 44.113281 L 84.976562 42.011719 L 83.089844 42.011719 L 83.089844 38.859375 L 80.171875 38.859375 Z M 80.171875 40.4375 "/>
<path style=" stroke:none;fill-rule:nonzero;fill:rgb(0%,0%,0%);fill-opacity:1;" d="M 52.550781 44.636719 C 50.148438 47.824219 49.613281 48.367188 49.613281 47.714844 C 49.613281 47.4375 48.808594 46.664062 48.152344 46.332031 C 47.878906 46.195312 46.96875 45.882812 46.160156 45.621094 C 44.476562 45.105469 44.101562 44.6875 44.738281 44.039062 C 45.21875 43.539062 46.726562 43.761719 47.753906 44.496094 L 48.222656 44.8125 L 48.738281 44.039062 C 49.027344 43.605469 49.269531 43.1875 49.269531 43.097656 C 49.269531 43.011719 48.875 42.707031 48.375 42.449219 C 46.796875 41.574219 44.359375 41.648438 43.019531 42.589844 C 42.476562 42.992188 41.902344 44.113281 41.871094 44.898438 L 41.851562 45.425781 L 41.667969 44.847656 C 41.40625 43.992188 40.207031 42.707031 39.226562 42.253906 C 38.011719 41.679688 35.984375 41.660156 34.761719 42.253906 C 32.960938 43.117188 32.035156 44.636719 32.050781 46.742188 C 32.050781 48.785156 32.839844 50.152344 34.574219 51.074219 C 35.328125 51.503906 35.660156 51.550781 36.996094 51.550781 C 38.246094 51.550781 38.695312 51.480469 39.347656 51.148438 C 40.082031 50.78125 41.375 49.554688 41.375 49.222656 C 41.375 49.15625 40.859375 48.941406 40.222656 48.765625 C 39.191406 48.488281 39.070312 48.488281 38.933594 48.734375 C 38.675781 49.1875 37.835938 49.535156 36.980469 49.535156 C 36.308594 49.535156 36.101562 49.449219 35.605469 48.941406 C 35.277344 48.613281 35.023438 48.191406 35.023438 47.980469 C 35.023438 47.617188 35.070312 47.617188 38.457031 47.617188 L 41.886719 47.617188 L 41.902344 47.207031 C 41.925781 47 41.925781 46.5625 41.902344 46.246094 L 41.851562 45.652344 L 42.433594 46.300781 C 42.882812 46.808594 43.347656 47.050781 44.789062 47.527344 C 46.710938 48.171875 47.035156 48.367188 47.035156 48.839844 C 47.035156 49.75 45.335938 49.839844 43.726562 49.011719 C 43.15625 48.734375 42.660156 48.488281 42.644531 48.488281 C 42.609375 48.488281 42.386719 48.839844 42.125 49.273438 C 41.578125 50.238281 41.648438 50.34375 43.140625 51.046875 C 44.070312 51.480469 44.410156 51.53125 45.839844 51.550781 C 47.210938 51.550781 47.585938 51.480469 48.191406 51.167969 C 48.582031 50.9375 49.027344 50.589844 49.167969 50.382812 C 49.441406 49.992188 49.441406 49.992188 49.441406 50.640625 L 49.441406 51.289062 L 54.417969 51.289062 L 54.417969 53.738281 L 57.167969 53.738281 L 57.167969 51.289062 L 58.710938 51.289062 L 58.710938 48.660156 L 57.167969 48.660156 L 57.167969 41.132812 L 56.1875 41.152344 L 55.195312 41.152344 Z M 37.871094 44.039062 C 38.457031 44.328125 38.972656 45.054688 38.972656 45.601562 C 38.972656 45.828125 38.660156 45.867188 36.996094 45.867188 C 35.105469 45.867188 35.023438 45.84375 35.023438 45.496094 C 35.023438 44.953125 35.328125 44.480469 35.929688 44.113281 C 36.597656 43.691406 37.097656 43.671875 37.871094 44.039062 Z M 54.761719 47.089844 L 54.761719 48.660156 L 53.558594 48.660156 C 52.910156 48.660156 52.359375 48.632812 52.359375 48.574219 C 52.359375 48.453125 54.59375 45.511719 54.691406 45.511719 C 54.726562 45.511719 54.761719 46.214844 54.761719 47.089844 Z M 54.761719 47.089844 "/>
<path style=" stroke:none;fill-rule:nonzero;fill:rgb(0%,0%,0%);fill-opacity:1;" d="M 10.851562 42.167969 C 10.457031 42.359375 9.941406 42.730469 9.695312 42.992188 L 9.269531 43.464844 L 9.269531 42.011719 L 6.695312 42.011719 L 6.695312 51.464844 L 9.441406 51.464844 L 9.441406 45.808594 L 10.199219 45.054688 C 11.035156 44.179688 11.710938 44.0625 12.378906 44.621094 C 12.773438 44.953125 12.789062 45.039062 12.839844 48.210938 L 12.894531 51.464844 L 15.621094 51.464844 L 15.621094 47.859375 C 15.621094 43.886719 15.5 43.164062 14.726562 42.414062 C 14.285156 41.980469 14.074219 41.921875 12.90625 41.871094 C 11.878906 41.832031 11.433594 41.90625 10.851562 42.167969 Z M 10.851562 42.167969 "/>
<path style=" stroke:none;fill-rule:nonzero;fill:rgb(0%,0%,0%);fill-opacity:1;" d="M 18.800781 42.238281 C 16.976562 43.117188 16.070312 44.601562 16.070312 46.652344 C 16.085938 49.765625 18.316406 51.835938 21.441406 51.601562 C 24.167969 51.394531 25.972656 49.464844 25.972656 46.742188 C 25.972656 44.8125 25.027344 43.164062 23.433594 42.308594 C 22.914062 42.046875 22.351562 41.921875 21.203125 41.890625 C 19.84375 41.820312 19.550781 41.871094 18.800781 42.238281 Z M 21.679688 44.355469 C 22.816406 44.847656 23.347656 46.105469 22.988281 47.472656 C 22.710938 48.539062 21.953125 49.1875 20.996094 49.1875 C 19.070312 49.1875 18.195312 46.527344 19.589844 44.898438 C 20.035156 44.394531 20.257812 44.269531 20.996094 44.128906 C 21.0625 44.128906 21.371094 44.21875 21.679688 44.355469 Z M 21.679688 44.355469 "/>
<path style=" stroke:none;fill-rule:nonzero;fill:rgb(0%,0%,0%);fill-opacity:1;" d="M 1.835938 59.289062 C 1.769531 59.34375 1.71875 59.550781 1.71875 59.726562 C 1.71875 60.023438 3.296875 60.039062 49.976562 60.039062 L 98.214844 60.039062 L 98.160156 59.636719 L 98.109375 59.25 L 50.023438 59.203125 C 23.589844 59.183594 1.890625 59.21875 1.835938 59.289062 Z M 1.835938 59.289062 "/>
</g>
</svg>
